HIERARCHY
ROOT Hips
{
	OFFSET 52.634899 13.257291 56.360104
	CHANNELS 6 Xposition Yposition Zposition Xrotation Yrotation Zrotation
	JOINT spine
	{
		OFFSET 0.000000 -0.458068 7.965679
		CHANNELS 3 Xrotation Yrotation Zrotation
		JOINT spine1
		{
			OFFSET 0.000000 -0.000002 10.243103
			CHANNELS 3 Xrotation Yrotation Zrotation
			JOINT spine2
			{
				OFFSET 0.000000 -0.000001 9.814751
				CHANNELS 3 Xrotation Yrotation Zrotation
				JOINT Neck
				{
					OFFSET 0.000000 -1.201385 25.198601
					CHANNELS 3 Xrotation Yrotation Zrotation
					JOINT Head
					{
						OFFSET 0.000000 -0.000001 7.613152
						CHANNELS 3 Xrotation Yrotation Zrotation
						End Site
						{
							OFFSET 0.000000 6.077327 18.428101
						}
					}
				}
				JOINT RightShoulder
				{
					OFFSET -4.132702 0.575449 10.599197
					CHANNELS 3 Xrotation Yrotation Zrotation
					JOINT RightArm
					{
						OFFSET 0.000000 -0.000003 13.901802
						CHANNELS 3 Xrotation Yrotation Zrotation
						JOINT RightArmRoll
						{
							OFFSET 0.000000 -0.000001 7.017891
							CHANNELS 3 Xrotation Yrotation Zrotation
							JOINT RightForeArm
							{
								OFFSET 0.000000 -0.000003 20.440598
								CHANNELS 3 Xrotation Yrotation Zrotation
								JOINT RightForeArmRoll
								{
									OFFSET 0.000000 -0.000002 7.875153
									CHANNELS 3 Xrotation Yrotation Zrotation
									JOINT RightHand
									{
										OFFSET 0.000000 -0.000002 15.803696
										CHANNELS 3 Xrotation Yrotation Zrotation
										End Site
										{
											OFFSET 0.000000 0.000000 0.100006
										}
									}
								}
							}
						}
					}
				}
				JOINT LeftShoulder
				{
					OFFSET 4.132702 0.575449 10.599197
					CHANNELS 3 Xrotation Yrotation Zrotation
					JOINT LeftArm
					{
						OFFSET 0.000000 -0.000003 13.901802
						CHANNELS 3 Xrotation Yrotation Zrotation
						JOINT LeftArmRoll
						{
							OFFSET 0.000000 -0.000001 7.017891
							CHANNELS 3 Xrotation Yrotation Zrotation
							JOINT LeftForeArm
							{
								OFFSET 0.000000 -0.000003 20.440598
								CHANNELS 3 Xrotation Yrotation Zrotation
								JOINT LeftForeArmRoll
								{
									OFFSET 0.000000 -0.000002 7.875153
									CHANNELS 3 Xrotation Yrotation Zrotation
									JOINT LeftHand
									{
										OFFSET 0.000000 -0.000002 15.803696
										CHANNELS 3 Xrotation Yrotation Zrotation
										End Site
										{
											OFFSET 0.000000 0.000000 0.100006
										}
									}
								}
							}
						}
					}
				}
			}
		}
	}
	JOINT RightUpLeg
	{
		OFFSET -7.060482 1.086101 -1.294701
		CHANNELS 3 Xrotation Yrotation Zrotation
		JOINT RightUpLegRoll
		{
			OFFSET 0.000000 -0.000004 18.530796
			CHANNELS 3 Xrotation Yrotation Zrotation
			JOINT RightLeg
			{
				OFFSET 0.000000 0.000004 -22.947598
				CHANNELS 3 Xrotation Yrotation Zrotation
				JOINT RightLegRoll
				{
					OFFSET 0.000000 -0.000004 23.022594
					CHANNELS 3 Xrotation Yrotation Zrotation
					JOINT RightFoot
					{
						OFFSET 0.000000 -0.000003 19.162498
						CHANNELS 3 Xrotation Yrotation Zrotation
						JOINT RightToeBase
						{
							OFFSET 0.000000 -0.000003 16.018799
							CHANNELS 3 Xrotation Yrotation Zrotation
							End Site
							{
								OFFSET 0.006790 0.894206 7.757812
							}
						}
					}
				}
			}
		}
	}
	JOINT LeftUpLeg
	{
		OFFSET 7.060482 1.086101 -1.294701
		CHANNELS 3 Xrotation Yrotation Zrotation
		JOINT LeftUpLegRoll
		{
			OFFSET 0.000000 -0.000004 18.530895
			CHANNELS 3 Xrotation Yrotation Zrotation
			JOINT LeftLeg
			{
				OFFSET 0.000000 -0.000003 22.947502
				CHANNELS 3 Xrotation Yrotation Zrotation
				JOINT LeftLegRoll
				{
					OFFSET 0.000000 -0.000004 23.235497
					CHANNELS 3 Xrotation Yrotation Zrotation
					JOINT LeftFoot
					{
						OFFSET 0.000000 -0.000004 18.949600
						CHANNELS 3 Xrotation Yrotation Zrotation
						JOINT LeftToeBase
						{
							OFFSET 0.000000 -0.000002 16.018799
							CHANNELS 3 Xrotation Yrotation Zrotation
							End Site
							{
								OFFSET -0.030430 0.894205 7.757812
							}
						}
					}
				}
			}
		}
	}
}
MOTION
Frames: 7
Frame Time: 0.041667
53.161800 9.628031 58.091206 3.789799 -3.521961 7.990461 2.174836 0.847053 -0.134694 8.355639 1.685022 -0.317622 10.001027 1.681096 -0.337790 20.352763 -3.186985 -2.956477 6.789201 2.243118 -3.426476 -7.957696 -64.308772 -9.774091 -58.922956 -125.729303 -73.602767 -0.000000 -0.000000 0.000002 60.842280 -10.717972 2.889994 -0.000001 0.000006 -3.006670 -5.000203 -7.999403 0.000064 3.709066 61.157760 -3.985543 -62.435353 129.429353 82.342158 0.000001 0.000001 0.000002 59.170195 13.806339 -4.448727 -0.000001 -0.000006 2.999990 -5.000218 7.999158 -0.000092 -89.073016 -170.561804 -2.995675 -179.999991 0.000005 -0.918997 98.495808 5.275200 0.217895 -0.000007 -0.000004 1.424680 63.486130 4.976660 6.790082 25.456957 -7.355624 0.000004 -87.121918 181.773655 -2.509842 -0.000005 -0.000004 -1.308730 -81.446195 -1.999076 1.418816 -0.000008 -0.000005 -1.654520 63.731129 -5.773232 -4.998311 25.456952 7.355612 0.000001 
53.145302 9.641710 58.065002 3.638819 -3.543830 7.965125 2.160874 0.847491 -0.137893 8.327762 1.685716 -0.324819 9.973147 1.681713 -0.344995 20.370517 -3.064700 -2.951194 6.739305 2.169144 -3.405831 -7.869496 -64.244650 -9.668669 -58.806262 -125.889757 -73.379202 -0.000001 -0.000000 0.000000 60.480171 -10.799788 2.928888 -0.000000 0.000005 -3.006671 -5.000199 -7.999400 0.000063 3.660709 61.254783 -3.915831 -62.437573 129.525822 82.174996 -0.000001 0.000000 0.000000 58.844545 13.861279 -4.460894 -0.000000 -0.000008 2.999988 -5.000218 7.999165 -0.000094 -88.956288 -170.589179 -2.993084 -179.999991 0.000005 -0.922002 98.467074 5.292982 0.234914 -0.000007 -0.000004 1.425720 63.488289 4.975595 6.793331 25.456953 -7.355624 0.000005 -87.002376 181.752918 -2.509434 -0.000005 -0.000004 -1.310730 -81.470783 -2.004492 1.412489 -0.000008 -0.000005 -1.654460 63.722673 -5.770014 -5.005609 25.456955 7.355613 0.000001 
53.137600 9.657900 58.032108 3.488459 -3.565288 7.940600 2.147004 0.847550 -0.140909 8.300068 1.685687 -0.331558 9.945455 1.681600 -0.351732 20.387819 -2.944884 -2.946136 6.689913 2.099471 -3.386240 -7.784297 -64.182448 -9.566808 -58.698584 -126.046155 -73.166496 -0.000000 -0.000001 0.000001 60.122207 -10.880612 2.966351 0.000001 0.000007 -3.006670 -5.000199 -7.999395 0.000064 3.617637 61.354046 -3.851864 -62.448590 129.620093 82.017998 -0.000001 0.000000 0.000001 58.520890 13.917491 -4.473748 0.000001 -0.000006 2.999990 -5.000218 7.999165 -0.000092 -88.839833 -170.614888 -2.990263 -179.999991 0.000005 -0.923997 98.439548 5.309981 0.249936 -0.000007 -0.000004 1.426890 63.490795 4.974749 6.796017 25.456953 -7.355621 0.000004 -86.883114 181.733179 -2.508144 -0.000005 -0.000004 -1.312740 -81.494429 -2.009822 1.405968 -0.000008 -0.000005 -1.654399 63.713644 -5.767000 -5.012483 25.456953 7.355612 0.000000 
53.134899 9.670311 58.017609 3.338528 -3.586220 7.917021 2.133313 0.847111 -0.143641 8.272721 1.684696 -0.337602 9.918109 1.680539 -0.357764 20.404353 -2.828279 -2.941414 6.641600 2.035272 -3.367984 -7.703826 -64.122574 -9.470506 -58.598741 -126.199138 -72.962690 -0.000001 0.000000 -0.000001 59.769414 -10.960597 3.002263 0.000001 0.000007 -3.006669 -5.000205 -7.999401 0.000064 3.581776 61.456703 -3.795706 -62.468753 129.712587 81.871026 -0.000000 0.000001 -0.000001 58.199509 13.975744 -4.487702 0.000002 -0.000006 2.999990 -5.000217 7.999160 -0.000094 -88.723242 -170.638698 -2.987158 -179.999991 0.000005 -0.927002 98.413416 5.326123 0.264977 -0.000008 -0.000004 1.428220 63.493527 4.974090 6.798238 25.456952 -7.355621 0.000005 -86.763763 181.714751 -2.507056 -0.000004 -0.000004 -1.314770 -81.516839 -2.015048 1.399560 -0.000008 -0.000005 -1.654331 63.704054 -5.764236 -5.018744 25.456953 7.355613 0.000001 
53.130600 9.686401 58.004604 3.188791 -3.606501 7.894543 2.119869 0.846060 -0.145991 8.245871 1.682534 -0.342719 9.891254 1.678311 -0.362855 20.419846 -2.715630 -2.937129 6.594944 1.977728 -3.351387 -7.629762 -64.065658 -9.381706 -58.508616 -126.347407 -72.769997 -0.000000 0.000000 0.000001 59.423144 -11.039682 3.036710 -0.000002 0.000006 -3.006671 -5.000198 -7.999396 0.000066 3.555030 61.563616 -3.749388 -62.502603 129.801803 81.739421 -0.000001 -0.000002 -0.000000 57.880874 14.036789 -4.503582 0.000001 -0.000008 2.999992 -5.000215 7.999165 -0.000092 -88.606063 -170.660131 -2.983626 -179.999991 0.000005 -0.928996 98.389121 5.341088 0.278004 -0.000007 -0.000004 1.429700 63.496430 4.973726 6.799717 25.456953 -7.355624 0.000005 -86.644023 181.697935 -2.506852 -0.000005 -0.000004 -1.316850 -81.537692 -2.020203 1.392974 -0.000008 -0.000005 -1.654270 63.693816 -5.761830 -5.024224 25.456957 7.355613 0.000001 
53.127998 9.700542 57.986301 3.039072 -3.626026 7.873281 2.106758 0.844286 -0.147856 8.219674 1.678963 -0.346679 9.865052 1.674691 -0.366771 20.433903 -2.607718 -2.933369 6.550498 1.928031 -3.336729 -7.563745 -64.012103 -9.302345 -58.430636 -126.490090 -72.591387 -0.000000 -0.000000 -0.000001 59.084490 -11.117910 3.069614 0.000001 0.000009 -3.006670 -5.000201 -7.999401 0.000063 3.539398 61.676034 -3.715051 -62.550551 129.888246 81.623021 0.000001 -0.000000 0.000001 57.565196 14.101425 -4.521554 -0.000001 -0.000009 2.999988 -5.000216 7.999163 -0.000092 -88.487881 -170.679078 -2.979318 -179.999991 0.000005 -0.932001 98.367018 5.354915 0.291032 -0.000007 -0.000004 1.431370 63.499381 4.973765 6.800291 25.456955 -7.355624 0.000005 -86.523443 181.682936 -2.506126 -0.000005 -0.000004 -1.318960 -81.556796 -2.025280 1.386410 -0.000008 -0.000005 -1.654210 63.682935 -5.759779 -5.028822 25.456959 7.355613 0.000001 
53.117699 9.715773 57.965900 2.889140 -3.644683 7.853404 2.094064 0.841671 -0.149133 8.194290 1.673765 -0.349246 9.839666 1.669470 -0.369277 20.446414 -2.505260 -2.930251 6.508827 1.887376 -3.324322 -7.507441 -63.962468 -9.234371 -58.364328 -126.627035 -72.425857 -0.000001 -0.000001 0.000002 58.754722 -11.195288 3.100939 0.000002 0.000009 -3.006671 -5.000202 -7.999399 0.000065 3.536873 61.794928 -3.694814 -62.616101 129.970973 81.525705 -0.000001 0.000000 -0.000003 57.252999 14.170350 -4.542364 0.000002 -0.000006 2.999992 -5.000215 7.999165 -0.000092 -88.368243 -170.694951 -2.974300 -179.999991 0.000005 -0.933996 98.347477 5.367239 0.303043 -0.000007 -0.000004 1.433230 63.502495 4.974099 6.800028 25.456953 -7.355622 0.000005 -86.401811 181.669891 -2.504450 -0.000004 -0.000005 -1.321120 -81.573830 -2.030303 1.379678 -0.000008 -0.000005 -1.654171 63.671228 -5.758175 -5.032364 25.456952 7.355613 0.000001 
